<svg width="44" height="64" viewBox="0 0 44 64" fill="none" xmlns="http://www.w3.org/2000/svg">
<path d="M22 44C28.625 44 34 38.75 34 32V12C34 5.375 28.625 0 22 0C15.25 0 10 5.375 10 12V32C10 38.75 15.25 44 22 44ZM42 24H40C38.875 24 38 25 38 26V32C38 41.375 29.875 48.875 20.375 48C12 47.125 6 39.75 6 31.375V26C6 25 5 24 4 24H2C0.875 24 0 25 0 26V31.125C0 42.25 7.875 52.25 19 53.75V58H12C10.875 58 10 59 10 60V62C10 63.125 10.875 64 12 64H32C33 64 34 63.125 34 62V60C34 59 33 58 32 58H25V53.875C35.625 52.375 44 43.125 44 32V26C44 25 43 24 42 24Z" fill="#C13833"/>
</svg>
