<svg width="62" height="62" viewBox="0 0 62 62" fill="none" xmlns="http://www.w3.org/2000/svg">
<path d="M31 0C13.875 0 0 13.875 0 31C0 48.125 13.875 62 31 62C48.125 62 62 48.125 62 31C62 13.875 48.125 0 31 0ZM41 21C43.125 21 45 22.875 45 25C45 27.25 43.125 29 41 29C38.75 29 37 27.25 37 25C37 22.875 38.75 21 41 21ZM21 21C23.125 21 25 22.875 25 25C25 27.25 23.125 29 21 29C18.75 29 17 27.25 17 25C17 22.875 18.75 21 21 21ZM45.25 42.375C41.75 46.625 36.5 49 31 49C25.375 49 20.125 46.625 16.625 42.375C14.875 40.25 18 37.75 19.625 39.75C22.5 43.125 26.625 45 31 45C35.375 45 39.375 43.125 42.25 39.75C43.875 37.75 47 40.25 45.25 42.375Z" fill="#C13833"/>
</svg>
