<svg width="64" height="64" viewBox="0 0 64 64" fill="none" xmlns="http://www.w3.org/2000/svg">
<path d="M13 28H3C1.25 28 0 29.375 0 31V61C0 62.75 1.25 64 3 64H13C14.625 64 16 62.75 16 61V31C16 29.375 14.625 28 13 28ZM8 59C6.25 59 5 57.75 5 56C5 54.375 6.25 53 8 53C9.625 53 11 54.375 11 56C11 57.75 9.625 59 8 59ZM48 10.25C48 1 42 0 39 0C36.375 0 35.25 5 34.75 7.25C34 10 33.375 12.75 31.5 14.625C27.5 18.75 25.375 23.875 20.375 28.75C20.125 29.125 20 29.5 20 29.875V56.625C20 57.375 20.625 58 21.375 58.125C23.375 58.125 26 59.25 28 60.125C32 61.875 36.875 64 42.875 64H43.25C48.625 64 55 64 57.5 60.375C58.625 58.875 58.875 57 58.25 54.75C60.375 52.625 61.375 48.625 60.375 45.375C62.5 42.5 62.75 38.375 61.5 35.5C63 34 64 31.625 63.875 29.375C63.875 25.5 60.625 22 56.5 22H43.75C44.75 18.5 48 15.5 48 10.25Z" fill="#C13833"/>
</svg>
